<mxfile host="app.diagrams.net" modified="2023-04-10T07:38:21.271Z" agent="Mozilla/5.0 (Windows NT 10.0; Win64; x64) AppleWebKit/537.36 (KHTML, like Gecko) Chrome/111.0.0.0 Safari/537.36" version="21.1.4" etag="IGlNDiQdwl56i2wvdpqX" type="github">
  <diagram name="페이지-1" id="OojzCieHh-s7xgd1qRwr">
    <mxGraphModel>
      <root>
        <mxCell id="0" />
        <mxCell id="1" parent="0" />
      </root>
    </mxGraphModel>
  </diagram>
</mxfile>
